# xmcd
#
# Track frame offsets:
#	150
#	17092
#	33277
#	51275
#	66877
#	82067
#	100327
#	113975
#	130640
#	143940
#	157690
#	174805
#	192362
#	208677
#	222102
#	241465
#
# Disc length: 3528 seconds
#
# Revision: 2
# Processed by: cddbd v1.5.2PL0 Copyright (c) Steve Scherf et al.
# Submitted via: audiograbber 1.83.01
#
DISCID=da0dc610
DTITLE=MH1090 Monster Hits - Male Country Hits of 2000 (MH)
DYEAR=2008
DGENRE=Karaoke
TTITLE0=Rascall Flatts - Prayin' For Daylight (MH)
TTITLE1=Lonestar - What About Now (MH)
TTITLE2=Clay Davidson - Unconditional (MH)
TTITLE3=Chad Brock - Yes (MH)
TTITLE4=Andy Griggs - She's More (MH)
TTITLE5=Keith Urban - Your Everything (MH)
TTITLE6=Tracy Lawrence - Lessons Learned (MH)
TTITLE7=Collin Raye - Couldn't Last A Moment (MH)
TTITLE8=Joe Diffie - It's Always Somethin' (MH)
TTITLE9=Jackson, Alan - It Must Be Love (MH)
TTITLE10=Kenny Rogers - Buy Me A Rose (MH)
TTITLE11=Phil Vassar - Carlene (MH)
TTITLE12=Lonestar - Smile (MH)
TTITLE13=Aaron Tippin - Kiss This (MH)
TTITLE14=Vince Gill - Feels Like Love (MH)
TTITLE15=Clay Walker - The Chain Of Love (MH)
EXTD=
EXTT0=
EXTT1=
EXTT2=
EXTT3=
EXTT4=
EXTT5=
EXTT6=
EXTT7=
EXTT8=
EXTT9=
EXTT10=
EXTT11=
EXTT12=
EXTT13=
EXTT14=
EXTT15=
PLAYORDER=
